<svg xmlns="http://www.w3.org/2000/svg" viewBox="0 0 1240 1000" width="1240" height="1000"
     font-family="-apple-system, BlinkMacSystemFont, 'Segoe UI', Roboto, Helvetica, Arial, sans-serif"
     role="img" aria-labelledby="titulo descripcion">
  <title id="titulo">Infograma del Ecosistema Tecnologico SQA — Equipo 11, Proyecto 16</title>
  <desc id="descripcion">Esquema de integracion del ecosistema SQA, organizado en cinco capas. Capa 1, fuente y gobernanza: repositorio GitHub con el SUT, issues con taxonomia de 34 etiquetas, pull requests como evidencia de peer-review IEEE 730 y tablero Projects v2. Capa 2, disparadores: push a main y develop, pull request hacia main, cron semanal y ejecucion manual. Capa 3, automatizacion con seis workflows de GitHub Actions divididos en gates de calidad (ci-static, ci-tests, ci-metricas) y automatizacion de trazabilidad (sync-labels, pr-project, pages-dashboard). Capa 4, evidencia generada: SonarCloud, jacoco.xml, reportes Surefire e issues_export.json. Capa 5, metricas y publicacion: calcular_kpi.py produce reporte_kpi.json, generar_dashboard.py produce el sitio y GitHub Pages lo publica para el docente. Al pie, el marco normativo aplicado. Dos huecos conocidos se senalan en ambar: SonarCloud analiza sin datos de cobertura (issue 31) y el nivel de pruebas de aceptacion esta ausente (issue 34).</desc>

  <defs>
    <marker id="flecha" viewBox="0 0 10 10" refX="9" refY="5" markerWidth="6" markerHeight="6" orient="auto-start-reverse">
      <path d="M 0 0 L 10 5 L 0 10 z" fill="#6e7681"/>
    </marker>
    <marker id="flecha-acento" viewBox="0 0 10 10" refX="9" refY="5" markerWidth="6" markerHeight="6" orient="auto-start-reverse">
      <path d="M 0 0 L 10 5 L 0 10 z" fill="#4493f8"/>
    </marker>
  </defs>

  <rect width="1240" height="1000" fill="#0d1117"/>

  <!-- ================= Encabezado ================= -->
  <text x="32" y="46" font-size="22" font-weight="700" fill="#e6edf3">Ecosistema Tecnológico SQA</text>
  <text x="32" y="68" font-size="13" fill="#9aa4b2">Equipo 11 · Proyecto 16 — integración de herramientas de aseguramiento de la calidad, 100 % nativa de GitHub</text>
  <text x="1208" y="46" font-size="12" fill="#6e7681" text-anchor="end">Apéndice del PACS · issue #9</text>
  <text x="1208" y="66" font-size="12" fill="#6e7681" text-anchor="end">Estado verificado: 2026-07-12</text>
  <line x1="32" y1="86" x2="1208" y2="86" stroke="#21262d" stroke-width="1"/>

  <!-- ================= Capa 1 — Fuente y gobernanza ================= -->
  <rect x="32" y="106" width="1176" height="134" rx="12" fill="#161b22" stroke="#30363d"/>
  <text x="52" y="132" font-size="11" font-weight="700" fill="#6e7681" letter-spacing="1.2">1 · FUENTE DE VERDAD Y GOBERNANZA</text>

  <g>
    <rect x="52" y="146" width="272" height="76" rx="8" fill="#1c2230" stroke="#30363d"/>
    <rect x="52" y="146" width="272" height="3" rx="1.5" fill="#4493f8"/>
    <text x="68" y="174" font-size="13" font-weight="700" fill="#e6edf3">Repositorio GitHub</text>
    <text x="68" y="194" font-size="11" fill="#9aa4b2">SUT: Java 21 · Spring Boot 3.4.5 · Vue 3</text>
    <text x="68" y="210" font-size="11" fill="#6e7681">Código congelado — solo se audita</text>
  </g>
  <g>
    <rect x="340" y="146" width="272" height="76" rx="8" fill="#1c2230" stroke="#30363d"/>
    <rect x="340" y="146" width="272" height="3" rx="1.5" fill="#4493f8"/>
    <text x="356" y="174" font-size="13" font-weight="700" fill="#e6edf3">Issues + taxonomía</text>
    <text x="356" y="194" font-size="11" fill="#9aa4b2">34 etiquetas declarativas</text>
    <text x="356" y="210" font-size="11" fill="#6e7681">tipo · área · severidad · estado · rol · fase · iso</text>
  </g>
  <g>
    <rect x="628" y="146" width="272" height="76" rx="8" fill="#1c2230" stroke="#30363d"/>
    <rect x="628" y="146" width="272" height="3" rx="1.5" fill="#4493f8"/>
    <text x="644" y="174" font-size="13" font-weight="700" fill="#e6edf3">Pull Requests</text>
    <text x="644" y="194" font-size="11" fill="#9aa4b2">Revisión por pares — IEEE 730</text>
    <text x="644" y="210" font-size="11" fill="#6e7681">Cada PR es la evidencia formal del review</text>
  </g>
  <g>
    <rect x="916" y="146" width="272" height="76" rx="8" fill="#1c2230" stroke="#30363d"/>
    <rect x="916" y="146" width="272" height="3" rx="1.5" fill="#4493f8"/>
    <text x="932" y="174" font-size="13" font-weight="700" fill="#e6edf3">Projects v2 · tablero #4</text>
    <text x="932" y="194" font-size="11" fill="#9aa4b2">Público — visible para el docente</text>
    <text x="932" y="210" font-size="11" fill="#6e7681">Campos: Fase · Severidad · Rol · Status</text>
  </g>

  <line x1="620" y1="240" x2="620" y2="266" stroke="#6e7681" stroke-width="1.5" marker-end="url(#flecha)"/>

  <!-- ================= Capa 2 — Disparadores ================= -->
  <rect x="32" y="272" width="1176" height="72" rx="12" fill="#161b22" stroke="#30363d"/>
  <text x="52" y="298" font-size="11" font-weight="700" fill="#6e7681" letter-spacing="1.2">2 · DISPARADORES</text>

  <g font-size="11" fill="#79b8ff">
    <rect x="52" y="308" width="196" height="24" rx="12" fill="rgba(68,147,248,.14)" stroke="rgba(68,147,248,.4)"/>
    <text x="150" y="324" text-anchor="middle">push → main / develop</text>

    <rect x="264" y="308" width="196" height="24" rx="12" fill="rgba(68,147,248,.14)" stroke="rgba(68,147,248,.4)"/>
    <text x="362" y="324" text-anchor="middle">pull request → main</text>

    <rect x="476" y="308" width="220" height="24" rx="12" fill="rgba(68,147,248,.14)" stroke="rgba(68,147,248,.4)"/>
    <text x="586" y="324" text-anchor="middle">cron — lunes 06:00 UTC</text>

    <rect x="712" y="308" width="196" height="24" rx="12" fill="rgba(68,147,248,.14)" stroke="rgba(68,147,248,.4)"/>
    <text x="810" y="324" text-anchor="middle">workflow_dispatch</text>
  </g>
  <text x="1188" y="324" font-size="11" fill="#6e7681" text-anchor="end">Sin intervención manual en el camino crítico</text>

  <line x1="620" y1="344" x2="620" y2="370" stroke="#6e7681" stroke-width="1.5" marker-end="url(#flecha)"/>

  <!-- ================= Capa 3 — Automatización (GitHub Actions) ================= -->
  <rect x="32" y="376" width="1176" height="222" rx="12" fill="#161b22" stroke="#30363d"/>
  <text x="52" y="402" font-size="11" font-weight="700" fill="#6e7681" letter-spacing="1.2">3 · AUTOMATIZACIÓN — 6 WORKFLOWS DE GITHUB ACTIONS</text>
  <text x="1188" y="402" font-size="11" fill="#6e7681" text-anchor="end">Gates de calidad</text>

  <g>
    <rect x="52" y="414" width="368" height="90" rx="8" fill="#1c2230" stroke="#30363d"/>
    <rect x="52" y="414" width="3" height="90" rx="1.5" fill="#3fb950"/>
    <text x="68" y="438" font-size="12.5" font-weight="700" fill="#e6edf3">ci-static.yml</text>
    <text x="68" y="458" font-size="11" fill="#9aa4b2">Checkstyle · SpotBugs · PMD · SonarCloud</text>
    <text x="68" y="476" font-size="11" fill="#6e7681">Análisis estático sobre el SUT — required check</text>
    <text x="68" y="493" font-size="11" fill="#6e7681">Compila sin ejecutar pruebas</text>
  </g>
  <g>
    <rect x="436" y="414" width="368" height="90" rx="8" fill="#1c2230" stroke="#30363d"/>
    <rect x="436" y="414" width="3" height="90" rx="1.5" fill="#3fb950"/>
    <text x="452" y="438" font-size="12.5" font-weight="700" fill="#e6edf3">ci-tests.yml</text>
    <text x="452" y="458" font-size="11" fill="#9aa4b2">JUnit 5 · Mockito · Spring Boot Test · H2 · JaCoCo</text>
    <text x="452" y="476" font-size="11" fill="#6e7681">regresión = gate · defecto-conocido = informativo</text>
    <text x="452" y="493" font-size="11" fill="#e3b341">Aceptación (Playwright): ausente — #34</text>
  </g>
  <g>
    <rect x="820" y="414" width="368" height="90" rx="8" fill="#1c2230" stroke="#30363d"/>
    <rect x="820" y="414" width="3" height="90" rx="1.5" fill="#3fb950"/>
    <text x="836" y="438" font-size="12.5" font-weight="700" fill="#e6edf3">ci-metricas.yml</text>
    <text x="836" y="458" font-size="11" fill="#9aa4b2">pytest</text>
    <text x="836" y="476" font-size="11" fill="#6e7681">El instrumento de medición también se prueba:</text>
    <text x="836" y="493" font-size="11" fill="#6e7681">valida calcular_kpi.py y el dashboard</text>
  </g>

  <text x="1188" y="530" font-size="11" fill="#6e7681" text-anchor="end">Automatización de trazabilidad</text>
  <g>
    <rect x="52" y="538" width="368" height="46" rx="8" fill="#1c2230" stroke="#30363d"/>
    <rect x="52" y="538" width="3" height="46" rx="1.5" fill="#8b949e"/>
    <text x="68" y="558" font-size="12.5" font-weight="700" fill="#e6edf3">sync-labels.yml</text>
    <text x="68" y="575" font-size="11" fill="#6e7681">La taxonomía vive como código, no como convención</text>
  </g>
  <g>
    <rect x="436" y="538" width="368" height="46" rx="8" fill="#1c2230" stroke="#30363d"/>
    <rect x="436" y="538" width="3" height="46" rx="1.5" fill="#8b949e"/>
    <text x="452" y="558" font-size="12.5" font-weight="700" fill="#e6edf3">pr-project.yml</text>
    <text x="452" y="575" font-size="11" fill="#6e7681">Auto-add al tablero · etiqueta y sincroniza estado:*</text>
  </g>
  <g>
    <rect x="820" y="538" width="368" height="46" rx="8" fill="#1c2230" stroke="#30363d"/>
    <rect x="820" y="538" width="3" height="46" rx="1.5" fill="#8b949e"/>
    <text x="836" y="558" font-size="12.5" font-weight="700" fill="#e6edf3">pages-dashboard.yml</text>
    <text x="836" y="575" font-size="11" fill="#6e7681">Orquesta la capa 5: mide, genera y publica</text>
  </g>

  <line x1="620" y1="598" x2="620" y2="624" stroke="#6e7681" stroke-width="1.5" marker-end="url(#flecha)"/>

  <!-- ================= Capa 4 — Evidencia ================= -->
  <rect x="32" y="630" width="1176" height="122" rx="12" fill="#161b22" stroke="#30363d"/>
  <text x="52" y="656" font-size="11" font-weight="700" fill="#6e7681" letter-spacing="1.2">4 · EVIDENCIA GENERADA — LA MÉTRICA NO SE DECLARA, SE MIDE</text>

  <g>
    <rect x="52" y="668" width="272" height="66" rx="8" fill="#1c2230" stroke="#30363d"/>
    <text x="68" y="691" font-size="12.5" font-weight="700" fill="#e6edf3">SonarCloud</text>
    <text x="68" y="709" font-size="11" fill="#9aa4b2">Bugs · code smells · deuda técnica</text>
    <text x="68" y="725" font-size="11" fill="#e3b341">Hoy analiza sin cobertura — #31</text>
  </g>
  <g>
    <rect x="340" y="668" width="272" height="66" rx="8" fill="#1c2230" stroke="#30363d"/>
    <text x="356" y="691" font-size="12.5" font-weight="700" fill="#e6edf3">jacoco.xml</text>
    <text x="356" y="709" font-size="11" fill="#9aa4b2">Cobertura de rama e instrucciones</text>
    <text x="356" y="725" font-size="11" fill="#6e7681">Alcance: grupo regresión → M-02 · M-04</text>
  </g>
  <g>
    <rect x="628" y="668" width="272" height="66" rx="8" fill="#1c2230" stroke="#30363d"/>
    <text x="644" y="691" font-size="12.5" font-weight="700" fill="#e6edf3">Surefire XML</text>
    <text x="644" y="709" font-size="11" fill="#9aa4b2">Resultados de ejecución de pruebas</text>
    <text x="644" y="725" font-size="11" fill="#6e7681">Densidad y tasa de éxito → M-01 · M-03</text>
  </g>
  <g>
    <rect x="916" y="668" width="272" height="66" rx="8" fill="#1c2230" stroke="#30363d"/>
    <text x="932" y="691" font-size="12.5" font-weight="700" fill="#e6edf3">issues_export.json</text>
    <text x="932" y="709" font-size="11" fill="#9aa4b2">Estado real del proceso SQA</text>
    <text x="932" y="725" font-size="11" fill="#6e7681">Exportado con gh — hallazgos, defectos, roles</text>
  </g>

  <line x1="620" y1="752" x2="620" y2="778" stroke="#4493f8" stroke-width="1.5" marker-end="url(#flecha-acento)"/>

  <!-- ================= Capa 5 — Métricas y publicación ================= -->
  <rect x="32" y="784" width="1176" height="122" rx="12" fill="#161b22" stroke="#30363d"/>
  <text x="52" y="810" font-size="11" font-weight="700" fill="#6e7681" letter-spacing="1.2">5 · MEDICIÓN Y PUBLICACIÓN</text>

  <g>
    <rect x="52" y="822" width="204" height="66" rx="8" fill="#1c2230" stroke="rgba(68,147,248,.4)"/>
    <text x="154" y="850" font-size="12.5" font-weight="700" fill="#e6edf3" text-anchor="middle">calcular_kpi.py</text>
    <text x="154" y="869" font-size="11" fill="#6e7681" text-anchor="middle">Consolida M-01..M-06</text>
  </g>
  <line x1="256" y1="855" x2="280" y2="855" stroke="#4493f8" stroke-width="1.5" marker-end="url(#flecha-acento)"/>

  <g>
    <rect x="284" y="822" width="204" height="66" rx="8" fill="#1c2230" stroke="rgba(68,147,248,.4)"/>
    <text x="386" y="850" font-size="12.5" font-weight="700" fill="#e6edf3" text-anchor="middle">reporte_kpi.json</text>
    <text x="386" y="869" font-size="11" fill="#6e7681" text-anchor="middle">Versionado en el repo</text>
  </g>
  <line x1="488" y1="855" x2="512" y2="855" stroke="#4493f8" stroke-width="1.5" marker-end="url(#flecha-acento)"/>

  <g>
    <rect x="516" y="822" width="204" height="66" rx="8" fill="#1c2230" stroke="rgba(68,147,248,.4)"/>
    <text x="618" y="850" font-size="12.5" font-weight="700" fill="#e6edf3" text-anchor="middle">generar_dashboard.py</text>
    <text x="618" y="869" font-size="11" fill="#6e7681" text-anchor="middle">HTML + SVG, sin JS ni CDN</text>
  </g>
  <line x1="720" y1="855" x2="744" y2="855" stroke="#4493f8" stroke-width="1.5" marker-end="url(#flecha-acento)"/>

  <g>
    <rect x="748" y="822" width="204" height="66" rx="8" fill="#1c2230" stroke="rgba(63,185,80,.5)"/>
    <text x="850" y="850" font-size="12.5" font-weight="700" fill="#e6edf3" text-anchor="middle">GitHub Pages</text>
    <text x="850" y="869" font-size="11" fill="#3fb950" text-anchor="middle">Publicado en cada push a main</text>
  </g>
  <line x1="952" y1="855" x2="976" y2="855" stroke="#4493f8" stroke-width="1.5" marker-end="url(#flecha-acento)"/>

  <g>
    <rect x="980" y="822" width="208" height="66" rx="8" fill="#1c2230" stroke="#30363d"/>
    <text x="1084" y="850" font-size="12.5" font-weight="700" fill="#e6edf3" text-anchor="middle">Docente</text>
    <text x="1084" y="869" font-size="11" fill="#6e7681" text-anchor="middle">Repo público — sin credenciales</text>
  </g>

  <!-- ================= Pie — marco normativo ================= -->
  <text x="32" y="944" font-size="11" font-weight="700" fill="#6e7681" letter-spacing="1.2">MARCO NORMATIVO</text>
  <g font-size="11" fill="#9aa4b2">
    <text x="228" y="944">IEEE 730-2014 (PACS)</text>
    <text x="384" y="944">·</text>
    <text x="400" y="944">ISO/IEC 25010 (Fiabilidad)</text>
    <text x="586" y="944">·</text>
    <text x="602" y="944">ISO/IEC/IEEE 29119 (pruebas)</text>
    <text x="812" y="944">·</text>
    <text x="828" y="944">ISO/IEC/IEEE 29148 (requisitos)</text>
    <text x="1048" y="944">·</text>
    <text x="1064" y="944">ISO/IEC 12207</text>
  </g>
  <g font-size="11" fill="#e3b341">
    <rect x="32" y="962" width="10" height="10" rx="2" fill="rgba(210,153,34,.2)" stroke="#e3b341"/>
    <text x="50" y="971">Ámbar = hueco conocido, registrado como issue y bajo seguimiento. El ecosistema declara lo que le falta.</text>
  </g>
</svg>
